<?xml version="1.0" standalone="no"?>
<!DOCTYPE svg PUBLIC "-//W3C//DTD SVG 20010904//EN"
 "http://www.w3.org/TR/2001/REC-SVG-20010904/DTD/svg10.dtd">
<svg version="1.0" xmlns="http://www.w3.org/2000/svg"
 width="1280.000000pt" height="394.000000pt" viewBox="0 0 1280.000000 394.000000"
 preserveAspectRatio="xMidYMid meet">
<g transform="translate(0.000000,394.000000) scale(0.100000,-0.100000)"
fill="#000000" stroke="none">
<path d="M7 3933 c-4 -3 -7 -48 -7 -98 l0 -92 42 -6 c26 -3 51 -15 67 -31 25
-26 26 -30 26 -155 0 -123 -1 -131 -24 -155 -19 -20 -34 -26 -68 -26 l-43 0 0
-1395 0 -1395 38 0 c83 0 105 -44 100 -199 -3 -104 -5 -112 -29 -137 -16 -16
-41 -28 -67 -31 l-42 -6 0 -101 0 -102 6385 1 c4386 1 6388 4 6395 11 7 7 10
48 8 100 l-3 88 -36 11 c-74 21 -79 31 -79 185 0 154 4 164 79 185 l36 11 0
1384 0 1385 -39 6 c-68 11 -76 31 -76 183 0 125 1 134 23 153 12 12 38 25 57
30 l35 9 0 95 0 94 -6386 3 c-3512 1 -6389 -1 -6392 -5z m591 -204 c53 -18 62
-44 62 -182 0 -118 -1 -125 -25 -151 -22 -24 -30 -26 -111 -26 -76 0 -91 3
-111 22 -22 20 -23 28 -23 158 0 129 1 138 23 157 12 12 31 23 42 26 37 9 112
7 143 -4z m557 -3 c18 -8 38 -23 44 -34 6 -12 11 -76 11 -147 0 -120 -1 -127
-25 -150 -22 -23 -32 -25 -114 -25 -85 0 -91 1 -110 26 -19 24 -21 40 -21 154
0 113 2 130 20 153 11 14 30 28 43 30 49 10 120 6 152 -7z m560 -16 c24 -23
25 -27 25 -157 0 -129 -1 -135 -25 -158 -22 -23 -32 -25 -110 -25 -78 0 -88 2
-110 25 -24 23 -25 30 -25 150 0 71 5 135 11 146 17 33 67 50 141 46 54 -2 72
-7 93 -27z m534 -6 c26 -29 27 -32 26 -157 -2 -119 -3 -129 -25 -152 -22 -23
-31 -25 -112 -25 -83 0 -91 2 -113 26 -24 26 -25 33 -25 154 0 125 0 127 28
152 37 35 47 38 126 35 62 -3 71 -6 95 -33z m536 6 c24 -23 25 -27 25 -159 0
-125 -2 -136 -22 -158 -19 -21 -30 -23 -110 -23 -81 0 -91 2 -113 25 -24 23
-25 29 -25 152 0 106 3 132 18 150 25 33 60 43 134 40 55 -2 72 -7 93 -27z
m546 -8 c29 -32 29 -34 29 -151 0 -114 -1 -121 -26 -150 -25 -30 -28 -31 -112
-31 -74 0 -89 3 -109 22 -22 20 -23 28 -23 158 0 129 1 138 23 157 32 30 45
33 121 30 63 -3 71 -5 97 -35z m527 5 c27 -27 27 -29 27 -156 0 -123 -1 -131
-24 -155 -23 -24 -31 -26 -113 -26 -81 0 -91 2 -113 25 -24 23 -25 30 -25 150
0 71 5 135 11 146 18 34 67 50 142 46 58 -2 71 -6 95 -30z m514 -6 c27 -31 28
-34 28 -150 0 -114 -1 -121 -26 -150 -24 -29 -30 -31 -99 -31 -58 0 -77 4 -99
21 -26 20 -26 21 -26 158 0 130 1 139 23 158 31 28 43 32 111 28 53 -2 63 -6
88 -34z m493 25 c18 -8 38 -23 44 -34 6 -12 11 -76 11 -147 0 -120 -1 -127
-25 -150 -22 -23 -32 -25 -111 -25 -76 0 -91 3 -111 22 -22 20 -23 28 -23 158
0 129 1 138 23 157 12 12 31 23 42 26 42 10 117 6 150 -7z m582 -20 c21 -25
23 -36 23 -157 0 -125 -1 -131 -25 -154 -22 -23 -32 -25 -110 -25 -78 0 -88 2
-110 25 -24 23 -25 30 -25 150 0 71 5 135 11 146 18 35 67 50 143 45 61 -3 73
-7 93 -30z m528 4 c24 -23 25 -27 25 -161 0 -137 0 -138 -26 -158 -22 -18 -41
-21 -111 -21 -76 0 -86 2 -108 25 -24 23 -25 29 -25 152 0 106 3 132 18 150
25 33 60 43 134 40 55 -2 72 -7 93 -27z m534 -6 c27 -29 28 -35 29 -152 1
-117 0 -123 -24 -152 -25 -29 -28 -30 -114 -30 -86 0 -89 1 -114 31 -25 29
-26 36 -26 148 0 106 2 121 21 145 30 39 54 46 133 43 62 -3 71 -6 95 -33z
m539 3 c27 -27 27 -29 27 -156 0 -123 -1 -131 -24 -155 -23 -24 -31 -26 -113
-26 -83 0 -91 2 -113 26 -24 25 -25 34 -25 145 0 67 5 129 11 143 18 40 64 57
142 53 58 -2 71 -7 95 -30z m511 22 c49 -17 61 -52 61 -179 0 -115 -12 -161
-45 -174 -9 -3 -53 -6 -98 -6 -69 0 -84 3 -104 22 -22 20 -23 28 -23 158 0
129 1 138 23 157 12 12 31 23 42 26 38 9 112 7 144 -4z m559 -22 c27 -27 27
-29 27 -156 0 -123 -1 -131 -24 -155 -23 -24 -31 -26 -113 -26 -81 0 -91 2
-113 25 -24 23 -25 29 -25 152 1 138 5 150 56 178 20 11 49 15 97 13 58 -3 71
-8 95 -31z m488 16 c45 -20 54 -50 54 -178 0 -108 -1 -115 -26 -144 -25 -30
-29 -31 -100 -31 -66 0 -78 3 -99 25 -24 23 -25 29 -25 158 0 126 1 135 23
154 12 11 29 23 37 25 30 10 106 5 136 -9z m519 3 c18 -8 38 -23 44 -34 6 -12
11 -76 11 -147 0 -120 -1 -127 -25 -150 -22 -23 -32 -25 -114 -25 -85 0 -91 1
-110 26 -19 24 -21 40 -21 151 0 70 5 133 11 144 24 45 135 64 204 35z m580
-16 c24 -23 25 -27 25 -157 0 -129 -1 -135 -25 -158 -22 -23 -32 -25 -110 -25
-78 0 -88 2 -110 25 -24 23 -25 30 -25 150 0 71 5 135 11 146 17 33 67 50 141
46 54 -2 72 -7 93 -27z m532 -2 c26 -26 26 -28 24 -160 -3 -173 -6 -178 -131
-178 -81 0 -89 2 -114 26 -25 26 -26 31 -26 145 0 67 5 129 11 143 18 40 64
57 142 53 57 -2 71 -7 94 -29z m502 21 c50 -17 61 -51 61 -183 0 -109 -1 -116
-26 -145 -25 -30 -28 -31 -114 -31 -86 0 -89 1 -114 31 -25 29 -26 36 -26 148
0 106 2 121 21 145 12 15 31 32 43 36 30 13 118 12 155 -1z m572 -27 c29 -32
29 -34 29 -151 0 -114 -1 -121 -26 -150 -25 -30 -28 -31 -112 -31 -130 1 -142
16 -142 183 0 102 2 117 21 141 30 39 54 46 133 43 63 -3 71 -5 97 -35z m514
24 c18 -8 38 -23 44 -34 6 -12 11 -75 11 -145 0 -118 -1 -125 -25 -151 -22
-24 -30 -26 -111 -26 -76 0 -91 3 -111 22 -22 20 -23 28 -23 158 0 129 1 138
23 157 12 12 31 23 42 26 42 10 117 6 150 -7z m556 -24 c29 -32 29 -34 29
-151 0 -114 -1 -121 -26 -150 -25 -30 -28 -31 -109 -31 -46 0 -91 3 -100 6
-33 13 -45 59 -45 177 0 102 2 117 21 141 30 39 54 46 133 43 63 -3 71 -5 97
-35z m-8208 -374 c16 -12 17 -102 15 -1348 l-3 -1335 -2042 -3 -2043 -2 0
1344 c0 1272 1 1345 18 1349 9 3 922 5 2028 6 1594 1 2014 -2 2027 -11z m4260
0 c16 -12 17 -102 15 -1348 l-3 -1335 -2042 -3 -2043 -2 0 1344 c0 1272 1
1345 18 1349 9 3 922 5 2028 6 1594 1 2014 -2 2027 -11z m4255 6 l22 -6 -2
-1342 -3 -1341 -2040 0 -2040 0 -3 1335 c-2 1246 -1 1336 15 1348 13 9 433 12
2022 12 1103 0 2016 -3 2029 -6z m-8330 -2771 c34 -21 42 -53 42 -173 0 -107
-1 -110 -29 -142 -28 -32 -32 -33 -101 -32 -59 1 -75 5 -95 24 -24 23 -25 28
-25 160 0 129 1 138 23 157 12 11 29 23 37 25 26 9 124 -4 148 -19z m4205 17
c29 0 46 -7 68 -29 29 -29 29 -31 29 -145 0 -130 -9 -158 -55 -180 -45 -22
-141 -13 -172 16 -22 20 -23 28 -23 158 0 129 1 138 23 157 28 26 47 33 72 28
11 -3 37 -5 58 -5z m-7929 -31 c25 -29 26 -36 26 -150 0 -66 -5 -129 -10 -140
-19 -35 -67 -51 -141 -47 -55 3 -73 8 -94 28 -24 23 -25 27 -25 161 0 137 0
138 26 158 22 17 41 21 109 21 81 0 84 -1 109 -31z m548 4 c28 -27 28 -28 28
-154 0 -121 -1 -129 -24 -156 -23 -27 -29 -28 -109 -28 -77 0 -88 3 -111 24
-25 24 -26 27 -26 158 0 132 0 134 26 158 24 22 36 25 107 25 74 0 83 -2 109
-27z m532 1 c25 -26 26 -29 26 -159 0 -128 -1 -132 -26 -156 -23 -21 -34 -24
-111 -24 -80 0 -86 1 -109 28 -23 27 -24 35 -24 155 0 123 1 127 27 154 25 26
32 28 109 28 75 0 83 -2 108 -26z m531 1 c24 -23 25 -29 25 -158 0 -130 -1
-134 -25 -157 -21 -20 -39 -25 -94 -28 -74 -4 -122 12 -141 47 -5 11 -10 74
-10 141 0 121 0 122 29 151 28 27 34 29 111 29 73 0 83 -3 105 -25z m540 0
c24 -23 25 -29 25 -158 0 -131 -1 -134 -26 -158 -23 -21 -34 -24 -111 -24 -80
0 -86 1 -109 28 -23 27 -24 35 -24 157 l0 128 31 26 c27 23 39 26 110 26 71 0
83 -3 104 -25z m542 1 c27 -24 28 -27 31 -141 4 -137 -5 -171 -54 -191 -44
-18 -138 -18 -174 1 -41 21 -53 69 -48 199 3 104 4 109 31 132 25 21 38 24
107 24 69 0 82 -3 107 -24z m528 -1 c24 -23 25 -29 25 -158 0 -131 -1 -134
-26 -158 -23 -21 -34 -24 -111 -24 -80 0 -86 1 -109 28 -23 27 -24 35 -24 155
0 123 1 127 27 154 25 26 32 28 110 28 76 0 86 -2 108 -25z m1037 -2 c28 -26
28 -28 28 -151 0 -68 -5 -132 -10 -143 -19 -35 -67 -51 -141 -47 -55 3 -73 8
-94 28 -24 23 -25 27 -25 157 0 129 1 135 25 158 22 23 32 25 106 25 76 0 85
-2 111 -27z m552 1 c25 -26 26 -30 26 -155 0 -121 -1 -129 -24 -156 -23 -27
-29 -28 -109 -28 -77 0 -88 3 -111 24 -25 24 -26 28 -26 156 0 130 1 133 26
159 25 24 33 26 109 26 76 0 84 -2 109 -26z m531 1 c24 -23 25 -29 25 -158 0
-131 -1 -134 -26 -158 -23 -21 -34 -24 -111 -24 -80 0 -86 1 -109 28 -23 27
-24 35 -24 157 l0 128 31 26 c27 23 39 26 110 26 71 0 83 -3 104 -25z m529 4
c26 -20 26 -21 26 -158 0 -134 -1 -138 -25 -161 -21 -20 -39 -25 -94 -28 -74
-4 -122 12 -141 47 -5 11 -10 74 -10 141 0 121 0 122 29 151 28 27 34 29 109
29 65 0 84 -4 106 -21z m541 -4 c24 -23 25 -29 25 -158 0 -131 -1 -134 -26
-158 -23 -21 -34 -24 -111 -24 -80 0 -86 1 -109 28 -23 26 -24 35 -24 153 0
125 0 126 29 155 28 27 34 29 111 29 73 0 83 -3 105 -25z m546 -4 c29 -29 29
-31 29 -146 0 -172 -24 -202 -155 -193 -53 3 -70 9 -90 28 -23 24 -24 33 -27
158 l-3 134 28 24 c25 21 38 24 108 24 76 0 82 -2 110 -29z m524 7 c25 -23 26
-26 27 -156 1 -132 1 -134 -26 -160 -25 -25 -33 -27 -112 -27 -82 0 -87 1
-110 28 -23 26 -24 35 -24 153 0 125 0 126 29 155 28 27 34 29 110 29 68 0 84
-3 106 -22z m1039 -4 c25 -26 26 -30 26 -155 0 -121 -1 -129 -24 -156 -23 -27
-29 -28 -109 -28 -77 0 -88 3 -111 24 -25 24 -26 27 -26 158 0 132 0 134 26
158 24 22 36 25 109 25 76 0 84 -2 109 -26z m551 1 c24 -23 25 -29 25 -158 0
-131 -1 -134 -26 -158 -23 -21 -34 -24 -111 -24 -80 0 -86 1 -109 28 -23 27
-24 35 -24 155 0 123 1 127 27 154 25 26 32 28 110 28 76 0 86 -2 108 -25z
m530 0 c24 -23 25 -29 25 -158 0 -131 -1 -134 -26 -158 -23 -21 -34 -24 -111
-24 -80 0 -86 1 -109 28 -23 26 -24 35 -24 153 0 125 0 126 29 155 28 27 34
29 111 29 73 0 83 -3 105 -25z m532 1 c27 -23 28 -28 31 -132 6 -177 -18 -214
-136 -214 -121 0 -142 29 -142 195 0 115 0 117 29 146 28 27 34 29 110 29 70
0 83 -3 108 -24z m538 -1 c24 -23 25 -31 26 -142 2 -147 2 -143 -26 -172 -19
-19 -37 -26 -84 -29 -76 -6 -107 2 -137 35 -23 25 -24 33 -24 150 0 124 0 125
29 154 28 27 34 29 111 29 73 0 83 -3 105 -25z m546 -4 c29 -29 29 -30 29
-151 0 -67 -5 -130 -10 -141 -19 -35 -67 -51 -141 -47 -55 3 -73 8 -94 28 -24
23 -25 27 -25 157 0 129 1 135 25 158 22 22 32 25 105 25 77 0 83 -2 111 -29z
m530 3 c22 -24 24 -34 27 -149 l4 -123 -30 -33 c-27 -31 -35 -34 -99 -37 -81
-5 -128 13 -143 54 -6 14 -10 77 -10 140 0 114 0 116 29 145 28 27 34 29 113
29 78 0 86 -2 109 -26z"/>
</g>
</svg>
